<svg width="195" height="171" xmlns="http://www.w3.org/2000/svg"><path d="M165.73 71.092c-3.222-2.926-7.553-4.728-13.335-4.728-13.11 0-19.254 10.179-19.254 19.136 0 8.957 6.145 19.136 19.254 19.136 13.11 0 19.254-10.179 19.254-19.136 0-1.857-.255-3.628-.728-5.316l-3.368.837-2.458-9.771.634-.158Zm4.896-1.216 2.662-.662-1.639-6.514 9.832-6.514 2.458 10.585 9.013-2.035L195 74.507l-8.603 2.036 4.916 19.543 3.277-.815.41 7.329-12.7 2.85-6.554-26.464-3.866.96c.119 1.836.179 3.688.179 5.554 0 47.229-38.509 85.5-86.03 85.5C38.51 171 0 132.729 0 85.5S38.508 0 86.03 0c42.15 0 77.211 30.111 84.596 69.876ZM94.727 89.979H83.981c-1.229 2.035-3.277 4.885-7.784 4.885-5.325 0-8.602-3.664-8.602-8.957 0-2.443.819-4.886 2.458-6.514 1.638-1.629 3.686-2.85 6.144-2.443 3.687-.814 6.145 2.036 7.374 4.479h11.061C92.584 72.47 84.8 66.364 75.378 66.364c-10.651 0-18.844 8.55-18.844 19.136 0 10.586 8.603 19.136 19.254 19.136 9.603 0 16.471-6.216 19.076-14.093 1.88 7.343 7.938 14.093 18.613 14.093 13.11 0 19.254-10.179 19.254-19.136 0-8.957-6.145-19.136-19.254-19.136-13.11 0-19.254 10.179-19.254 19.136 0 1.477.167 2.987.504 4.479Zm-52.532 15.064c7.784 0 14.748-4.479 14.748-12.622 0-7.328-6.554-9.364-12.7-10.992-2.457-.815-5.325-2.036-5.325-3.665 0-1.221.82-2.443 2.868-2.443 2.867-.407 3.277 1.629 3.277 2.443h10.651c-.819-9.364-9.012-10.993-13.928-10.993-7.374 0-13.929 4.479-13.929 12.215 0 4.885 4.097 8.143 8.603 9.364 6.555 2.443 9.422 2.85 9.422 5.293 0 1.628-1.638 2.85-3.687 2.85-.41 0-3.687 0-4.096-3.257H27.447c1.23 9.364 9.423 11.807 14.748 11.807Zm71.077-28.764c4.535 0 8.658 3.772 8.658 9.221s-3.71 9.22-8.658 9.22c-4.535 0-8.658-3.771-8.658-9.22 0-5.449 3.71-9.22 8.658-9.22Zm38.756 0c4.948 0 8.659 3.772 8.659 9.221s-3.711 9.22-8.659 9.22c-4.535 0-8.658-3.771-8.658-9.22 0-5.449 3.71-9.22 8.658-9.22Z" fill="#FFE900" fill-rule="nonzero"/></svg>